# xmcd
#
# Track frame offsets:
#	150
#	30219
#	56207
#	108515
#	122587
#	153826
#	189426
#	213531
#	257769
#	297828
#	327860
#
# Disc length: 4773 seconds
#
# Revision: 1
# Processed by: cddbd v1.5.2PL0 Copyright (c) Steve Scherf et al.
# Submitted via: audiograbber 1.83.01
#
DISCID=9712a30b
DTITLE=Grateful Dead - 79-11-06 The Spectrum, Philadelphia PA
DYEAR=1900
DGENRE=
TTITLE0=Alabama Getaway
TTITLE1=Promised Land
TTITLE2=Tennessee Jed
TTITLE3=Me and My Uncle
TTITLE4=Mexicali Blues
TTITLE5=Candyman
TTITLE6=Easy To Love You
TTITLE7=Looks Like Rain
TTITLE8=Jack-A-Roe
TTITLE9=Jack Straw
TTITLE10=Deal
EXTD=
EXTT0=
EXTT1=
EXTT2=
EXTT3=
EXTT4=
EXTT5=
EXTT6=
EXTT7=
EXTT8=
EXTT9=
EXTT10=
PLAYORDER=
